<?xml version="1.0" encoding="UTF-8"?>
<svg id="DARK" xmlns="http://www.w3.org/2000/svg" version="1.1" xmlns:xlink="http://www.w3.org/1999/xlink" viewBox="0 0 2000 1570.6">
  <!-- Generator: Adobe Illustrator 29.0.1, SVG Export Plug-In . SVG Version: 2.1.0 Build 192)  -->
  <defs>
    <style>
      .st0 {
        fill: #050d16;
      }

      .st1 {
        fill: url(#Degradado_sin_nombre_11);
      }

      .st2 {
        filter: url(#outer-glow-2);
      }

      .st3 {
        fill: #fff;
      }

      .st4, .st5 {
        fill-rule: evenodd;
      }

      .st4, .st6 {
        fill: #808184;
      }

      .st5 {
        fill: url(#linear-gradient1);
        filter: url(#outer-glow-1);
      }

      .st7 {
        fill: url(#linear-gradient);
      }
    </style>
    <radialGradient id="Degradado_sin_nombre_11" data-name="Degradado sin nombre 11" cx="1000" cy="785.3" fx="1000" fy="785.3" r="899.08" gradientUnits="userSpaceOnUse">
      <stop offset="0" stop-color="#1a134c"/>
      <stop offset="1" stop-color="#070511"/>
    </radialGradient>
    <linearGradient id="linear-gradient" x1="413.29" y1="840.42" x2="621.28" y2="598.76" gradientUnits="userSpaceOnUse">
      <stop offset="0" stop-color="#5354e4"/>
      <stop offset=".81" stop-color="#0abef2"/>
    </linearGradient>
    <linearGradient id="linear-gradient1" x1="330.1" y1="622.88" x2="511.85" y2="411.71" gradientUnits="userSpaceOnUse">
      <stop offset="0" stop-color="#5354e4"/>
      <stop offset=".81" stop-color="#0abef2"/>
    </linearGradient>
    <filter id="outer-glow-1" x="310.93" y="416.91" width="205.27" height="236.95" filterUnits="userSpaceOnUse">
      <feOffset dx="0" dy="0"/>
      <feGaussianBlur result="blur" stdDeviation="15"/>
      <feFlood flood-color="#fff" flood-opacity=".5"/>
      <feComposite in2="blur" operator="in"/>
      <feComposite in="SourceGraphic"/>
    </filter>
    <filter id="outer-glow-2" x="500.33" y="924.6" width="66.9" height="65.95" filterUnits="userSpaceOnUse">
      <feOffset dx="0" dy="0"/>
      <feGaussianBlur result="blur1" stdDeviation="15"/>
      <feFlood flood-color="#fff" flood-opacity=".5"/>
      <feComposite in2="blur1" operator="in"/>
      <feComposite in="SourceGraphic"/>
    </filter>
  </defs>
  <rect class="st0" y="0" width="2000" height="1570.6"/>
  <rect class="st1" y="0" width="2000" height="1570.6"/>
  <g>
    <g>
      <path class="st7" d="M638.96,789.26c-.62,3.01-1.41,5.66-2.9,10.67-3.41,11.37-6.94,20.44-9.52,26.56-7.26,20.12-19.72,45.2-41.71,68.23-4.41,4.63-8.87,8.81-13.29,12.6.86,5.07-5.12,9.84-10.44,9.84h-54.78c-5.15,0-10.6-4.5-10.21-9.35-15.26-9.87-24.6-28.2-30.36-45.97-2.27-7-.94-11.35,2.34-13.14,3.09-1.7,7.99-1.07,13.3,1.81,15.49,8.44,34.41,10.31,51.24,5.04,16.83-5.26,31.33-17.55,39.26-33.31,4.11-8.17,6.33-18.48,1.39-26.19-3.59-5.6-10.11-8.51-16.46-10.44-33.93-10.29-70.65-.89-105.86-5.21-13.71-1.67-27.94-5.92-37.04-16.29-7.43-8.46-10.5-19.86-12.24-30.97-2.6-16.51-2.48-34.16.15-51.73-7.3.42-13.31-4.59-13.31-12.04,0-6.78,4.92-12.4,11.7-12.4,2.4,0,4.36.84,6.39,1.96,4.01,2.21,8.26,5.49,16.48,5.49,16.42,0,29.74-13.33,29.74-29.74,0-12.07-7.19-22.45-17.5-27.11-1.15-.39-2.72-.78-4.4-1.36-1.15-.36-2.34-.83-3.51-1.39-5.66-3.5-9.44-9.73-9.44-16.84,0-10.93,8.86-19.78,19.76-19.78,7.43,0,13.89,4.11,17.26,10.16.2.32.39.62.6.93,6.55,10.11,14.43,16.7,27.53,16.7,17,0,30.79-13.81,30.79-30.79,0-3.01-.6-6-.62-8.99v-.17c.06-6.71,5.56-11.66,12.28-11.66,7.22,0,12.73,5.71,12.22,12.73,26.8,4.08,51.8,16.86,73.42,33.29,8.52,6.48,17.06,14.26,19.54,24.67,1.76,7.39,1.7,19.73-2.74,26.25-9.92,14.55-31.22-4.85-41.8-9.16-14.94-6.04-30.4-10.4-46.65-10.53-29.69-.26-60.25,11.47-78.66,34.79-5.72,7.26-10.28,15.77-11.38,24.94-1.07,9.21,1.71,19.15,8.68,25.25,11.21,9.82,28.12,7.03,42.9,5.27,31.77-3.8,64.41,0,94.46,10.96,15.71,5.74,31.62,14.27,39.55,29.01,6.07,11.31,6.46,24.67,3.85,37.4Z"/>
      <path class="st5" d="M395.52,416.91c3.89,0,7.05,3.15,7.05,7.05s-3.16,7.05-7.05,7.05-7.05-3.16-7.05-7.05,3.15-7.05,7.05-7.05h0ZM374.87,491.84c2.94,0,5.34,2.39,5.34,5.35s-2.4,5.35-5.34,5.35-5.36-2.4-5.36-5.35,2.4-5.35,5.36-5.35h0ZM318.77,488.03c4.33,0,7.85,3.53,7.85,7.84s-3.51,7.84-7.85,7.84-7.84-3.51-7.84-7.84,3.53-7.84,7.84-7.84h0ZM421.23,614.8c-10.78,0-19.52,8.75-19.52,19.53s8.74,19.53,19.52,19.53,19.53-8.75,19.53-19.53-8.74-19.53-19.53-19.53h0ZM483.06,542.39c-11.99,0-21.7,9.72-21.7,21.7s9.71,21.7,21.7,21.7,21.7-9.72,21.7-21.7-9.72-21.7-21.7-21.7h0ZM506.86,459.58c2.96,0,5.35,2.4,5.35,5.36s-2.39,5.35-5.35,5.35-5.35-2.39-5.35-5.35,2.39-5.36,5.35-5.36h0ZM425.59,474.93c4.87,0,8.84,3.97,8.84,8.86s-3.97,8.84-8.84,8.84-8.86-3.97-8.86-8.84,3.97-8.86,8.86-8.86h0ZM345.39,520.72c5.8,0,10.52,4.71,10.52,10.52s-4.71,10.52-10.52,10.52-10.52-4.71-10.52-10.52,4.71-10.52,10.52-10.52h0ZM377.65,449.11c6.03,0,10.9,4.89,10.9,10.9s-4.87,10.91-10.9,10.91-10.9-4.89-10.9-10.91,4.87-10.9,10.9-10.9h0ZM467.83,446.21c4.71,0,8.56,3.83,8.56,8.56s-3.84,8.56-8.56,8.56-8.56-3.83-8.56-8.56,3.83-8.56,8.56-8.56h0ZM440.86,505.22c6.8,0,12.29,5.5,12.29,12.29s-5.49,12.29-12.29,12.29-12.29-5.5-12.29-12.29,5.5-12.29,12.29-12.29h0ZM502.56,494.24c7.53,0,13.63,6.1,13.63,13.63s-6.11,13.63-13.63,13.63-13.63-6.1-13.63-13.63,6.11-13.63,13.63-13.63h0ZM321.13,561.11c5.61,0,10.15,4.55,10.15,10.15s-4.54,10.17-10.15,10.17-10.17-4.55-10.17-10.17,4.55-10.15,10.17-10.15h0ZM385.89,539.09c-9.16,0-16.57,7.43-16.57,16.59s7.42,16.59,16.57,16.59,16.59-7.43,16.59-16.59-7.42-16.59-16.59-16.59h0ZM361.39,604.13c7.53,0,13.63,6.1,13.63,13.63s-6.11,13.63-13.63,13.63-13.63-6.1-13.63-13.63,6.1-13.63,13.63-13.63Z"/>
      <g class="st2">
        <g>
          <path class="st4" d="M506.56,924.6h54.44c3.43,0,6.23,2.8,6.23,6.23h0c0,3.43-2.8,6.23-6.23,6.23h-54.44c-3.43,0-6.23-2.8-6.23-6.23h0c0-3.43,2.8-6.23,6.23-6.23Z"/>
          <path class="st6" d="M511.64,941.1h44.28c2.98,0,5.41,2.42,5.41,5.41v.02c0,2.98-2.42,5.41-5.41,5.41h-44.28c-2.99,0-5.41-2.42-5.41-5.41h0c0-3,2.42-5.42,5.41-5.42Z"/>
        </g>
        <path class="st4" d="M505.89,958.19c-2.88,0-5.06,2.62-4.54,5.45,2.86,15.31,16.28,26.91,32.43,26.91s29.56-11.59,32.43-26.91c.53-2.83-1.66-5.45-4.54-5.45h-55.79Z"/>
      </g>
    </g>
    <g>
      <path class="st3" d="M705.23,689.1c-10.31,0-18.63-2.93-24.96-8.79-6.33-5.85-9.49-13.12-9.49-21.79s3.16-15.93,9.49-21.79c6.33-5.85,14.64-8.79,24.96-8.79s18.33,2.76,24.78,8.26c6.44,5.51,9.67,12.6,9.67,21.27,0,9.14-3.16,16.7-9.49,22.67s-14.65,8.96-24.96,8.96ZM677.81,904.57v-189.11h54.83v189.11h-54.83Z"/>
      <path class="st3" d="M898.55,712.65c14.99,0,28.41,2.99,40.25,8.96,11.83,5.97,21.14,15.11,27.94,27.42,6.79,12.3,10.19,28.06,10.19,47.28v108.26h-54.83v-99.83c0-15.23-3.34-26.48-10.02-33.74-6.68-7.26-16.11-10.9-28.3-10.9-8.67,0-16.47,1.88-23.38,5.62-6.92,3.75-12.3,9.26-16.17,16.52-3.87,7.27-5.8,16.87-5.8,28.82v93.5h-54.83v-189.11h52.37v52.37l-9.84-15.82c6.79-12.65,16.52-22.38,29.17-29.17,12.65-6.79,27.07-10.19,43.23-10.19Z"/>
      <path class="st3" d="M1066.22,904.57l-68.19-189.11h51.67l56.59,162.74h-24.96l59.05-162.74h46.75l56.94,162.74h-23.9l58-162.74h48.51l-68.54,189.11h-52.72l-50.62-139.54h15.82l-51.32,139.54h-53.08Z"/>
      <path class="st3" d="M1404.36,907.38c-14.53,0-27.07-2.52-37.61-7.56-10.55-5.04-18.69-11.89-24.43-20.56-5.75-8.67-8.61-18.39-8.61-29.17s2.75-20.79,8.26-29.35c5.5-8.55,14.24-15.17,26.19-19.86,11.95-4.68,27.65-7.03,47.1-7.03h49.91v31.64h-44.29c-12.89,0-21.74,2.11-26.54,6.33-4.81,4.22-7.21,9.49-7.21,15.82,0,7.03,2.75,12.6,8.26,16.7,5.5,4.1,12.95,6.15,22.32,6.15s17.75-2.11,25.13-6.33c7.38-4.22,12.59-10.66,15.64-19.33l8.44,25.66c-3.99,11.72-11.25,20.8-21.79,27.24-10.54,6.45-24.14,9.67-40.77,9.67ZM1462,904.57v-36.91l-3.51-8.08v-66.08c0-11.71-3.58-20.85-10.72-27.42-7.15-6.56-18.1-9.84-32.87-9.84-10.08,0-19.98,1.58-29.7,4.75-9.73,3.16-18.1,7.44-25.13,12.83l-19.33-38.31c10.31-7.5,22.73-13.18,37.26-17.05,14.53-3.87,29.29-5.8,44.29-5.8,28.82,0,51.2,6.8,67.14,20.39,15.93,13.59,23.9,34.8,23.9,63.62v107.91h-51.32Z"/>
      <path class="st3" d="M1562.89,904.57v-189.11h52.37v53.78l-7.38-15.82c5.62-13.36,14.64-23.49,27.07-30.41,12.42-6.91,27.53-10.37,45.34-10.37v50.97c-2.11-.47-4.16-.82-6.15-1.05-1.99-.23-3.93-.35-5.8-.35-15.47,0-27.77,4.34-36.91,13.01-9.14,8.67-13.71,22.03-13.71,40.07v89.28h-54.83Z"/>
    </g>
    <g>
      <path class="st3" d="M673.78,967.31v-9.94h24.89v9.94h-24.89ZM678.3,988.52v-31.34c0-4.26,1.28-7.65,3.83-10.18,2.55-2.53,6.18-3.8,10.88-3.8,1.45,0,2.9.13,4.37.39,1.47.26,2.7.67,3.71,1.24l-3.25,9.46c-.44-.2-.92-.38-1.45-.54-.52-.16-1.06-.24-1.63-.24-.96,0-1.75.3-2.35.9-.6.6-.9,1.57-.9,2.89v1.57l.42,5.6v24.04h-13.62Z"/>
      <path class="st3" d="M737.65,989.12c-3.74,0-7.04-.73-9.91-2.2-2.87-1.47-5.13-3.48-6.78-6.06-1.65-2.57-2.47-5.52-2.47-8.86s.82-6.29,2.47-8.86c1.65-2.57,3.91-4.58,6.78-6.03,2.87-1.45,6.18-2.17,9.91-2.17s7.05.72,9.94,2.17,5.15,3.46,6.78,6.03c1.63,2.57,2.44,5.52,2.44,8.86s-.81,6.29-2.44,8.86c-1.63,2.57-3.89,4.59-6.78,6.06-2.89,1.47-6.21,2.2-9.94,2.2ZM737.65,978.51c1,0,1.91-.24,2.71-.72.8-.48,1.45-1.21,1.93-2.2.48-.98.72-2.18.72-3.59s-.24-2.64-.72-3.59c-.48-.94-1.12-1.66-1.93-2.14-.8-.48-1.71-.72-2.71-.72s-1.91.24-2.71.72c-.8.48-1.45,1.2-1.93,2.14-.48.94-.72,2.14-.72,3.59s.24,2.6.72,3.59c.48.98,1.12,1.72,1.93,2.2.8.48,1.71.72,2.71.72Z"/>
      <path class="st3" d="M779.17,988.52v-32.96h12.96v9.94l-2.11-2.83c1-2.57,2.61-4.5,4.82-5.78,2.21-1.29,4.86-1.93,7.96-1.93v12.05c-.6-.08-1.14-.14-1.6-.18-.46-.04-.93-.06-1.42-.06-2.05,0-3.73.53-5.03,1.6-1.31,1.06-1.96,2.9-1.96,5.51v14.64h-13.62Z"/>
      <path class="st3" d="M873.78,989.12c-2.81,0-5.58-.3-8.32-.9-2.73-.6-4.94-1.39-6.63-2.35l3.74-8.98c1.57.92,3.38,1.65,5.45,2.17,2.07.52,4.09.78,6.06.78,1.65,0,2.76-.14,3.34-.42.58-.28.87-.66.87-1.14s-.34-.83-1.02-1.05c-.68-.22-1.59-.39-2.71-.51-1.12-.12-2.36-.27-3.71-.45-1.35-.18-2.7-.45-4.07-.81-1.37-.36-2.61-.9-3.74-1.63-1.12-.72-2.03-1.7-2.71-2.92-.68-1.22-1.02-2.78-1.02-4.67,0-2.09.63-3.98,1.9-5.66,1.27-1.69,3.15-3.04,5.66-4.07s5.61-1.54,9.31-1.54c2.41,0,4.82.22,7.23.66,2.41.44,4.48,1.12,6.21,2.05l-3.74,8.98c-1.69-.92-3.34-1.56-4.97-1.9-1.63-.34-3.14-.51-4.55-.51-1.73,0-2.9.16-3.53.48-.62.32-.93.68-.93,1.08,0,.48.34.84,1.02,1.08.68.24,1.59.42,2.71.54,1.12.12,2.36.27,3.71.45,1.34.18,2.69.46,4.04.84,1.35.38,2.58.93,3.71,1.66,1.12.72,2.03,1.7,2.71,2.92.68,1.23,1.02,2.78,1.02,4.67s-.62,3.81-1.87,5.51c-1.25,1.71-3.13,3.07-5.67,4.1-2.53,1.02-5.71,1.54-9.52,1.54Z"/>
      <path class="st3" d="M956.64,954.95c2.49,0,4.73.51,6.72,1.54,1.99,1.02,3.55,2.62,4.7,4.79,1.14,2.17,1.72,4.98,1.72,8.44v18.8h-13.62v-16.45c0-2.05-.34-3.5-1.02-4.37-.68-.86-1.57-1.3-2.65-1.3-.8,0-1.53.2-2.17.6-.64.4-1.16,1.03-1.54,1.9-.38.86-.57,2.04-.57,3.52v16.09h-13.62v-16.45c0-2.05-.32-3.5-.96-4.37-.64-.86-1.55-1.3-2.71-1.3-.8,0-1.53.2-2.17.6-.64.4-1.16,1.03-1.54,1.9-.38.86-.57,2.04-.57,3.52v16.09h-13.62v-32.96h12.96v9.46l-2.65-2.65c1.25-2.49,2.91-4.35,5-5.57,2.09-1.22,4.42-1.84,6.99-1.84,2.89,0,5.45.75,7.68,2.26,2.23,1.51,3.73,3.89,4.49,7.14l-4.16-.66c1.21-2.73,2.96-4.87,5.27-6.42,2.31-1.55,4.99-2.32,8.04-2.32Z"/>
      <path class="st3" d="M1004.37,989.12c-2.69,0-4.94-.46-6.75-1.39-1.81-.92-3.17-2.16-4.1-3.71-.92-1.55-1.39-3.26-1.39-5.15,0-2.13.54-3.94,1.63-5.42,1.08-1.49,2.74-2.61,4.97-3.37,2.23-.76,5.05-1.15,8.47-1.15h6.87v6.57h-4.7c-1.45,0-2.5.23-3.16.69-.66.46-.99,1.16-.99,2.08,0,.76.29,1.4.87,1.9.58.5,1.38.75,2.38.75.92,0,1.78-.25,2.56-.75.78-.5,1.36-1.3,1.72-2.38l1.75,4.04c-.52,2.45-1.63,4.28-3.31,5.48-1.69,1.21-3.96,1.81-6.81,1.81ZM1013.71,988.52v-5.85l-.96-1.57v-11.09c0-1.61-.49-2.83-1.48-3.68-.98-.84-2.58-1.27-4.79-1.27-1.49,0-2.99.23-4.52.69-1.53.46-2.83,1.1-3.92,1.9l-4.34-8.98c1.93-1.21,4.24-2.13,6.93-2.77,2.69-.64,5.32-.96,7.89-.96,5.66,0,10.05,1.27,13.17,3.8,3.11,2.53,4.67,6.55,4.67,12.05v17.72h-12.66Z"/>
      <path class="st3" d="M1050.35,988.52v-32.96h12.96v9.94l-2.11-2.83c1-2.57,2.61-4.5,4.82-5.78,2.21-1.29,4.86-1.93,7.96-1.93v12.05c-.6-.08-1.14-.14-1.6-.18-.46-.04-.93-.06-1.42-.06-2.05,0-3.73.53-5.03,1.6-1.31,1.06-1.96,2.9-1.96,5.51v14.64h-13.62Z"/>
      <path class="st3" d="M1093.79,967.31v-9.94h24.89v9.94h-24.89ZM1112.72,989.12c-4.54,0-8.08-1.09-10.61-3.28-2.53-2.19-3.8-5.55-3.8-10.09v-27.6h13.62v27.48c0,1,.27,1.79.81,2.35.54.56,1.21.84,2.02.84,1.17,0,2.19-.3,3.07-.9l3.25,9.46c-1.04.6-2.3,1.05-3.77,1.33-1.47.28-3,.42-4.61.42Z"/>
      <path class="st3" d="M1191.66,989.12c-2.81,0-5.58-.3-8.32-.9-2.73-.6-4.94-1.39-6.63-2.35l3.74-8.98c1.57.92,3.38,1.65,5.45,2.17,2.07.52,4.09.78,6.06.78,1.65,0,2.76-.14,3.34-.42.58-.28.87-.66.87-1.14s-.34-.83-1.02-1.05c-.68-.22-1.59-.39-2.71-.51-1.12-.12-2.36-.27-3.71-.45-1.35-.18-2.7-.45-4.07-.81-1.37-.36-2.61-.9-3.74-1.63-1.12-.72-2.03-1.7-2.71-2.92-.68-1.22-1.02-2.78-1.02-4.67,0-2.09.63-3.98,1.9-5.66,1.27-1.69,3.15-3.04,5.66-4.07s5.61-1.54,9.31-1.54c2.41,0,4.82.22,7.23.66,2.41.44,4.48,1.12,6.21,2.05l-3.74,8.98c-1.69-.92-3.34-1.56-4.97-1.9-1.63-.34-3.14-.51-4.55-.51-1.73,0-2.9.16-3.53.48-.62.32-.93.68-.93,1.08,0,.48.34.84,1.02,1.08.68.24,1.59.42,2.71.54,1.12.12,2.36.27,3.71.45,1.34.18,2.69.46,4.04.84,1.35.38,2.58.93,3.71,1.66,1.12.72,2.03,1.7,2.71,2.92.68,1.23,1.02,2.78,1.02,4.67s-.62,3.81-1.87,5.51c-1.25,1.71-3.13,3.07-5.67,4.1-2.53,1.02-5.71,1.54-9.52,1.54Z"/>
      <path class="st3" d="M1248.3,989.12c-3.74,0-7.04-.73-9.91-2.2-2.87-1.47-5.13-3.48-6.78-6.06-1.65-2.57-2.47-5.52-2.47-8.86s.82-6.29,2.47-8.86c1.65-2.57,3.91-4.58,6.78-6.03,2.87-1.45,6.18-2.17,9.91-2.17s7.05.72,9.94,2.17,5.15,3.46,6.78,6.03c1.63,2.57,2.44,5.52,2.44,8.86s-.81,6.29-2.44,8.86c-1.63,2.57-3.89,4.59-6.78,6.06-2.89,1.47-6.21,2.2-9.94,2.2ZM1248.3,978.51c1,0,1.91-.24,2.71-.72.8-.48,1.45-1.21,1.93-2.2.48-.98.72-2.18.72-3.59s-.24-2.64-.72-3.59c-.48-.94-1.12-1.66-1.93-2.14-.8-.48-1.71-.72-2.71-.72s-1.91.24-2.71.72c-.8.48-1.45,1.2-1.93,2.14-.48.94-.72,2.14-.72,3.59s.24,2.6.72,3.59c.48.98,1.12,1.72,1.93,2.2.8.48,1.71.72,2.71.72Z"/>
      <path class="st3" d="M1289.82,988.52v-44.71h13.62v44.71h-13.62Z"/>
      <path class="st3" d="M1341.29,989.12c-2.61,0-4.97-.53-7.08-1.6s-3.77-2.73-4.97-5c-1.21-2.27-1.81-5.19-1.81-8.77v-18.2h13.62v15.85c0,2.33.38,3.96,1.14,4.88.76.92,1.81,1.39,3.13,1.39.8,0,1.56-.21,2.26-.63.7-.42,1.27-1.12,1.72-2.11.44-.98.66-2.28.66-3.89v-15.49h13.62v32.96h-12.96v-9.52l2.59,2.59c-1.17,2.57-2.82,4.47-4.97,5.69-2.15,1.23-4.47,1.84-6.96,1.84Z"/>
      <path class="st3" d="M1384.67,967.31v-9.94h24.89v9.94h-24.89ZM1403.59,989.12c-4.54,0-8.08-1.09-10.61-3.28-2.53-2.19-3.8-5.55-3.8-10.09v-27.6h13.62v27.48c0,1,.27,1.79.81,2.35.54.56,1.21.84,2.02.84,1.17,0,2.19-.3,3.07-.9l3.25,9.46c-1.04.6-2.3,1.05-3.77,1.33-1.47.28-3,.42-4.61.42Z"/>
      <path class="st3" d="M1440.29,952.9c-2.49,0-4.48-.66-5.97-1.99-1.49-1.33-2.23-2.97-2.23-4.94s.74-3.62,2.23-4.94,3.47-1.99,5.97-1.99,4.48.62,5.97,1.87c1.49,1.25,2.23,2.85,2.23,4.82,0,2.09-.74,3.81-2.23,5.15-1.49,1.35-3.48,2.02-5.97,2.02ZM1433.48,988.52v-32.96h13.62v32.96h-13.62Z"/>
      <path class="st3" d="M1488.62,989.12c-3.74,0-7.04-.73-9.91-2.2-2.87-1.47-5.13-3.48-6.78-6.06-1.65-2.57-2.47-5.52-2.47-8.86s.82-6.29,2.47-8.86c1.65-2.57,3.91-4.58,6.78-6.03,2.87-1.45,6.18-2.17,9.91-2.17s7.05.72,9.94,2.17,5.15,3.46,6.78,6.03c1.63,2.57,2.44,5.52,2.44,8.86s-.81,6.29-2.44,8.86c-1.63,2.57-3.89,4.59-6.78,6.06-2.89,1.47-6.21,2.2-9.94,2.2ZM1488.62,978.51c1,0,1.91-.24,2.71-.72.8-.48,1.45-1.21,1.93-2.2.48-.98.72-2.18.72-3.59s-.24-2.64-.72-3.59c-.48-.94-1.12-1.66-1.93-2.14-.8-.48-1.71-.72-2.71-.72s-1.91.24-2.71.72c-.8.48-1.45,1.2-1.93,2.14-.48.94-.72,2.14-.72,3.59s.24,2.6.72,3.59c.48.98,1.12,1.72,1.93,2.2.8.48,1.71.72,2.71.72Z"/>
      <path class="st3" d="M1553.04,954.95c2.53,0,4.82.51,6.87,1.54s3.67,2.62,4.85,4.79c1.18,2.17,1.78,4.98,1.78,8.44v18.8h-13.62v-16.45c0-2.05-.36-3.5-1.08-4.37-.72-.86-1.71-1.3-2.95-1.3-.92,0-1.78.21-2.56.63s-1.41,1.11-1.87,2.08c-.46.96-.69,2.27-.69,3.92v15.49h-13.62v-32.96h12.96v9.64l-2.59-2.77c1.29-2.49,3.02-4.36,5.21-5.6,2.19-1.24,4.63-1.87,7.32-1.87Z"/>
      <path class="st3" d="M1603.42,989.12c-2.81,0-5.58-.3-8.32-.9-2.73-.6-4.94-1.39-6.63-2.35l3.74-8.98c1.57.92,3.38,1.65,5.45,2.17,2.07.52,4.09.78,6.06.78,1.65,0,2.76-.14,3.34-.42.58-.28.87-.66.87-1.14s-.34-.83-1.02-1.05c-.68-.22-1.59-.39-2.71-.51-1.12-.12-2.36-.27-3.71-.45-1.35-.18-2.7-.45-4.07-.81-1.37-.36-2.61-.9-3.74-1.63-1.12-.72-2.03-1.7-2.71-2.92-.68-1.22-1.02-2.78-1.02-4.67,0-2.09.63-3.98,1.9-5.66,1.27-1.69,3.15-3.04,5.66-4.07s5.61-1.54,9.31-1.54c2.41,0,4.82.22,7.23.66,2.41.44,4.48,1.12,6.21,2.05l-3.74,8.98c-1.69-.92-3.34-1.56-4.97-1.9-1.63-.34-3.14-.51-4.55-.51-1.73,0-2.9.16-3.53.48-.62.32-.93.68-.93,1.08,0,.48.34.84,1.02,1.08.68.24,1.59.42,2.71.54,1.12.12,2.36.27,3.71.45,1.34.18,2.69.46,4.04.84,1.35.38,2.58.93,3.71,1.66,1.12.72,2.03,1.7,2.71,2.92.68,1.23,1.02,2.78,1.02,4.67s-.62,3.81-1.87,5.51c-1.25,1.71-3.13,3.07-5.67,4.1-2.53,1.02-5.71,1.54-9.52,1.54Z"/>
    </g>
    <g>
      <path class="st3" d="M1084.39,564.68h0c7.05,24.61,26.28,43.84,50.89,50.89h0c-24.61,7.05-43.84,26.28-50.89,50.89h0c-7.05-24.61-26.28-43.84-50.89-50.89h0c24.61-7.05,43.84-26.28,50.89-50.89h0Z"/>
      <path class="st3" d="M1295.01,396.01h0c3.33,11.62,12.41,20.7,24.03,24.03h0c-11.62,3.33-20.7,12.41-24.03,24.03h0c-3.33-11.62-12.41-20.7-24.03-24.03h0c11.62-3.33,20.7-12.41,24.03-24.03h0Z"/>
    </g>
  </g>
</svg>