<?xml version="1.0" encoding="UTF-8"?>
<svg id="WHITE" xmlns="http://www.w3.org/2000/svg" version="1.1" xmlns:xlink="http://www.w3.org/1999/xlink" viewBox="0 0 2000 1570.6">
  <!-- Generator: Adobe Illustrator 29.0.1, SVG Export Plug-In . SVG Version: 2.1.0 Build 192)  -->
  <defs>
    <style>
      .st0 {
        fill: url(#linear-gradient2);
      }

      .st1 {
        fill: #050d16;
      }

      .st2 {
        fill: url(#linear-gradient10);
      }

      .st3 {
        filter: url(#outer-glow-2);
      }

      .st4 {
        fill: #fff;
      }

      .st5 {
        fill: url(#linear-gradient9);
      }

      .st6 {
        fill: url(#linear-gradient18);
      }

      .st7 {
        fill: url(#linear-gradient8);
      }

      .st8 {
        fill: url(#linear-gradient11);
      }

      .st9 {
        fill: url(#linear-gradient16);
      }

      .st10 {
        fill: url(#linear-gradient12);
      }

      .st11 {
        fill: url(#linear-gradient7);
      }

      .st12 {
        fill: url(#linear-gradient4);
      }

      .st13 {
        fill: url(#linear-gradient14);
      }

      .st14 {
        fill: url(#linear-gradient5);
      }

      .st15 {
        fill: url(#linear-gradient3);
      }

      .st16, .st17 {
        fill-rule: evenodd;
      }

      .st16, .st18 {
        fill: #808184;
      }

      .st17 {
        fill: url(#linear-gradient1);
        filter: url(#outer-glow-1);
      }

      .st19 {
        fill: url(#linear-gradient15);
      }

      .st20 {
        fill: url(#linear-gradient17);
      }

      .st21 {
        fill: url(#linear-gradient6);
      }

      .st22 {
        fill: url(#linear-gradient13);
      }

      .st23 {
        fill: url(#linear-gradient);
      }
    </style>
    <linearGradient id="linear-gradient" x1="413.29" y1="840.42" x2="621.28" y2="598.76" gradientUnits="userSpaceOnUse">
      <stop offset="0" stop-color="#5354e4"/>
      <stop offset=".81" stop-color="#0abef2"/>
    </linearGradient>
    <linearGradient id="linear-gradient1" x1="330.1" y1="622.88" x2="511.85" y2="411.71" gradientUnits="userSpaceOnUse">
      <stop offset="0" stop-color="#5354e4"/>
      <stop offset=".81" stop-color="#0abef2"/>
    </linearGradient>
    <filter id="outer-glow-1" x="310.93" y="416.91" width="205.27" height="236.95" filterUnits="userSpaceOnUse">
      <feOffset dx="0" dy="0"/>
      <feGaussianBlur result="blur" stdDeviation="15"/>
      <feFlood flood-color="#fff" flood-opacity=".5"/>
      <feComposite in2="blur" operator="in"/>
      <feComposite in="SourceGraphic"/>
    </filter>
    <filter id="outer-glow-2" x="500.33" y="924.6" width="66.9" height="65.95" filterUnits="userSpaceOnUse">
      <feOffset dx="0" dy="0"/>
      <feGaussianBlur result="blur1" stdDeviation="15"/>
      <feFlood flood-color="#fff" flood-opacity=".5"/>
      <feComposite in2="blur1" operator="in"/>
      <feComposite in="SourceGraphic"/>
    </filter>
    <linearGradient id="linear-gradient2" x1="940.7" y1="1231.85" x2="1393.18" y2="706.11" xlink:href="#linear-gradient"/>
    <linearGradient id="linear-gradient3" x1="940.7" y1="1231.85" x2="1393.18" y2="706.11" xlink:href="#linear-gradient"/>
    <linearGradient id="linear-gradient4" x1="940.7" y1="1231.85" x2="1393.18" y2="706.11" xlink:href="#linear-gradient"/>
    <linearGradient id="linear-gradient5" x1="940.7" y1="1231.85" x2="1393.18" y2="706.11" xlink:href="#linear-gradient"/>
    <linearGradient id="linear-gradient6" x1="940.7" y1="1231.85" x2="1393.18" y2="706.11" xlink:href="#linear-gradient"/>
    <linearGradient id="linear-gradient7" x1="940.7" y1="1231.85" x2="1393.18" y2="706.11" xlink:href="#linear-gradient"/>
    <linearGradient id="linear-gradient8" x1="940.7" y1="1231.85" x2="1393.18" y2="706.11" xlink:href="#linear-gradient"/>
    <linearGradient id="linear-gradient9" x1="940.7" y1="1231.85" x2="1393.18" y2="706.11" xlink:href="#linear-gradient"/>
    <linearGradient id="linear-gradient10" x1="940.7" y1="1231.85" x2="1393.18" y2="706.11" xlink:href="#linear-gradient"/>
    <linearGradient id="linear-gradient11" x1="940.7" y1="1231.85" x2="1393.18" y2="706.11" xlink:href="#linear-gradient"/>
    <linearGradient id="linear-gradient12" x1="940.7" y1="1231.85" x2="1393.18" y2="706.11" xlink:href="#linear-gradient"/>
    <linearGradient id="linear-gradient13" x1="940.7" y1="1231.85" x2="1393.18" y2="706.11" xlink:href="#linear-gradient"/>
    <linearGradient id="linear-gradient14" x1="940.7" y1="1231.85" x2="1393.18" y2="706.11" xlink:href="#linear-gradient"/>
    <linearGradient id="linear-gradient15" x1="940.7" y1="1231.85" x2="1393.18" y2="706.11" xlink:href="#linear-gradient"/>
    <linearGradient id="linear-gradient16" x1="940.7" y1="1231.85" x2="1393.18" y2="706.11" xlink:href="#linear-gradient"/>
    <linearGradient id="linear-gradient17" x1="940.7" y1="1231.85" x2="1393.18" y2="706.11" xlink:href="#linear-gradient"/>
    <linearGradient id="linear-gradient18" x1="940.7" y1="1231.85" x2="1393.18" y2="706.11" xlink:href="#linear-gradient"/>
  </defs>
  <rect class="st4" x="0" y="0" width="2000" height="1570.6"/>
  <g>
    <g>
      <path class="st23" d="M638.96,789.26c-.62,3.01-1.41,5.66-2.9,10.67-3.41,11.37-6.94,20.44-9.52,26.56-7.26,20.12-19.72,45.2-41.71,68.23-4.41,4.63-8.87,8.81-13.29,12.6.86,5.07-5.12,9.84-10.44,9.84h-54.78c-5.15,0-10.6-4.5-10.21-9.35-15.26-9.87-24.6-28.2-30.36-45.97-2.27-7-.94-11.35,2.34-13.14,3.09-1.7,7.99-1.07,13.3,1.81,15.49,8.44,34.41,10.31,51.24,5.04,16.83-5.26,31.33-17.55,39.26-33.31,4.11-8.17,6.33-18.48,1.39-26.19-3.59-5.6-10.11-8.51-16.46-10.44-33.93-10.29-70.65-.89-105.86-5.21-13.71-1.67-27.94-5.92-37.04-16.29-7.43-8.46-10.5-19.86-12.24-30.97-2.6-16.51-2.48-34.16.15-51.73-7.3.42-13.31-4.59-13.31-12.04,0-6.78,4.92-12.4,11.7-12.4,2.4,0,4.36.84,6.39,1.96,4.01,2.21,8.26,5.49,16.48,5.49,16.42,0,29.74-13.33,29.74-29.74,0-12.07-7.19-22.45-17.5-27.11-1.15-.39-2.72-.78-4.4-1.36-1.15-.36-2.34-.83-3.51-1.39-5.66-3.5-9.44-9.73-9.44-16.84,0-10.93,8.86-19.78,19.76-19.78,7.43,0,13.89,4.11,17.26,10.16.2.32.39.62.6.93,6.55,10.11,14.43,16.7,27.53,16.7,17,0,30.79-13.81,30.79-30.79,0-3.01-.6-6-.62-8.99v-.17c.06-6.71,5.56-11.66,12.28-11.66,7.22,0,12.73,5.71,12.22,12.73,26.8,4.08,51.8,16.86,73.42,33.29,8.52,6.48,17.06,14.26,19.54,24.67,1.76,7.39,1.7,19.73-2.74,26.25-9.92,14.55-31.22-4.85-41.8-9.16-14.94-6.04-30.4-10.4-46.65-10.53-29.69-.26-60.25,11.47-78.66,34.79-5.72,7.26-10.28,15.77-11.38,24.94-1.07,9.21,1.71,19.15,8.68,25.25,11.21,9.82,28.12,7.03,42.9,5.27,31.77-3.8,64.41,0,94.46,10.96,15.71,5.74,31.62,14.27,39.55,29.01,6.07,11.31,6.46,24.67,3.85,37.4Z"/>
      <path class="st17" d="M395.52,416.91c3.89,0,7.05,3.15,7.05,7.05s-3.16,7.05-7.05,7.05-7.05-3.16-7.05-7.05,3.15-7.05,7.05-7.05h0ZM374.87,491.84c2.94,0,5.34,2.39,5.34,5.35s-2.4,5.35-5.34,5.35-5.36-2.4-5.36-5.35,2.4-5.35,5.36-5.35h0ZM318.77,488.03c4.33,0,7.85,3.53,7.85,7.84s-3.51,7.84-7.85,7.84-7.84-3.51-7.84-7.84,3.53-7.84,7.84-7.84h0ZM421.23,614.8c-10.78,0-19.52,8.75-19.52,19.53s8.74,19.53,19.52,19.53,19.53-8.75,19.53-19.53-8.74-19.53-19.53-19.53h0ZM483.06,542.39c-11.99,0-21.7,9.72-21.7,21.7s9.71,21.7,21.7,21.7,21.7-9.72,21.7-21.7-9.72-21.7-21.7-21.7h0ZM506.86,459.58c2.96,0,5.35,2.4,5.35,5.36s-2.39,5.35-5.35,5.35-5.35-2.39-5.35-5.35,2.39-5.36,5.35-5.36h0ZM425.59,474.93c4.87,0,8.84,3.97,8.84,8.86s-3.97,8.84-8.84,8.84-8.86-3.97-8.86-8.84,3.97-8.86,8.86-8.86h0ZM345.39,520.72c5.8,0,10.52,4.71,10.52,10.52s-4.71,10.52-10.52,10.52-10.52-4.71-10.52-10.52,4.71-10.52,10.52-10.52h0ZM377.65,449.11c6.03,0,10.9,4.89,10.9,10.9s-4.87,10.91-10.9,10.91-10.9-4.89-10.9-10.91,4.87-10.9,10.9-10.9h0ZM467.83,446.21c4.71,0,8.56,3.83,8.56,8.56s-3.84,8.56-8.56,8.56-8.56-3.83-8.56-8.56,3.83-8.56,8.56-8.56h0ZM440.86,505.22c6.8,0,12.29,5.5,12.29,12.29s-5.49,12.29-12.29,12.29-12.29-5.5-12.29-12.29,5.5-12.29,12.29-12.29h0ZM502.56,494.24c7.53,0,13.63,6.1,13.63,13.63s-6.11,13.63-13.63,13.63-13.63-6.1-13.63-13.63,6.11-13.63,13.63-13.63h0ZM321.13,561.11c5.61,0,10.15,4.55,10.15,10.15s-4.54,10.17-10.15,10.17-10.17-4.55-10.17-10.17,4.55-10.15,10.17-10.15h0ZM385.89,539.09c-9.16,0-16.57,7.43-16.57,16.59s7.42,16.59,16.57,16.59,16.59-7.43,16.59-16.59-7.42-16.59-16.59-16.59h0ZM361.39,604.13c7.53,0,13.63,6.1,13.63,13.63s-6.11,13.63-13.63,13.63-13.63-6.1-13.63-13.63,6.1-13.63,13.63-13.63Z"/>
      <g class="st3">
        <g>
          <path class="st16" d="M506.56,924.6h54.44c3.43,0,6.23,2.8,6.23,6.23h0c0,3.43-2.8,6.23-6.23,6.23h-54.44c-3.43,0-6.23-2.8-6.23-6.23h0c0-3.43,2.8-6.23,6.23-6.23Z"/>
          <path class="st18" d="M511.64,941.1h44.28c2.98,0,5.41,2.42,5.41,5.41h0c0,3-2.42,5.42-5.41,5.42h-44.28c-2.99,0-5.41-2.42-5.41-5.41h0c0-3,2.42-5.42,5.41-5.42Z"/>
        </g>
        <path class="st16" d="M505.89,958.19c-2.88,0-5.06,2.62-4.54,5.45,2.86,15.31,16.28,26.91,32.43,26.91s29.56-11.59,32.43-26.91c.53-2.83-1.66-5.45-4.54-5.45h-55.79Z"/>
      </g>
    </g>
    <g>
      <path class="st1" d="M705.23,689.1c-10.31,0-18.63-2.93-24.96-8.79-6.33-5.85-9.49-13.12-9.49-21.79s3.16-15.93,9.49-21.79c6.33-5.85,14.64-8.79,24.96-8.79s18.33,2.76,24.78,8.26c6.44,5.51,9.67,12.6,9.67,21.27,0,9.14-3.16,16.7-9.49,22.67s-14.65,8.96-24.96,8.96ZM677.81,904.57v-189.11h54.83v189.11h-54.83Z"/>
      <path class="st1" d="M898.55,712.65c14.99,0,28.41,2.99,40.25,8.96,11.83,5.97,21.14,15.11,27.94,27.42,6.79,12.3,10.19,28.06,10.19,47.28v108.26h-54.83v-99.83c0-15.23-3.34-26.48-10.02-33.74-6.68-7.26-16.11-10.9-28.3-10.9-8.67,0-16.47,1.88-23.38,5.62-6.92,3.75-12.3,9.26-16.17,16.52-3.87,7.27-5.8,16.87-5.8,28.82v93.5h-54.83v-189.11h52.37v52.37l-9.84-15.82c6.79-12.65,16.52-22.38,29.17-29.17,12.65-6.79,27.07-10.19,43.23-10.19Z"/>
      <path class="st1" d="M1066.22,904.57l-68.19-189.11h51.67l56.59,162.74h-24.96l59.05-162.74h46.75l56.94,162.74h-23.9l58-162.74h48.51l-68.54,189.11h-52.72l-50.62-139.54h15.82l-51.32,139.54h-53.08Z"/>
      <path class="st1" d="M1404.36,907.38c-14.53,0-27.07-2.52-37.61-7.56-10.55-5.04-18.69-11.89-24.43-20.56-5.75-8.67-8.61-18.39-8.61-29.17s2.75-20.79,8.26-29.35c5.5-8.55,14.24-15.17,26.19-19.86,11.95-4.68,27.65-7.03,47.1-7.03h49.91v31.64h-44.29c-12.89,0-21.74,2.11-26.54,6.33-4.81,4.22-7.21,9.49-7.21,15.82,0,7.03,2.75,12.6,8.26,16.7,5.5,4.1,12.95,6.15,22.32,6.15s17.75-2.11,25.13-6.33c7.38-4.22,12.59-10.66,15.64-19.33l8.44,25.66c-3.99,11.72-11.25,20.8-21.79,27.24-10.54,6.45-24.14,9.67-40.77,9.67ZM1462,904.57v-36.91l-3.51-8.08v-66.08c0-11.71-3.58-20.85-10.72-27.42-7.15-6.56-18.1-9.84-32.87-9.84-10.08,0-19.98,1.58-29.7,4.75-9.73,3.16-18.1,7.44-25.13,12.83l-19.33-38.31c10.31-7.5,22.73-13.18,37.26-17.05,14.53-3.87,29.29-5.8,44.29-5.8,28.82,0,51.2,6.8,67.14,20.39,15.93,13.59,23.9,34.8,23.9,63.62v107.91h-51.32Z"/>
      <path class="st1" d="M1562.89,904.57v-189.11h52.37v53.78l-7.38-15.82c5.62-13.36,14.64-23.49,27.07-30.41,12.42-6.91,27.53-10.37,45.34-10.37v50.97c-2.11-.47-4.16-.82-6.15-1.05-1.99-.23-3.93-.35-5.8-.35-15.47,0-27.77,4.34-36.91,13.01-9.14,8.67-13.71,22.03-13.71,40.07v89.28h-54.83Z"/>
    </g>
    <g>
      <path class="st0" d="M673.78,965.6v-9.86h24.69v9.86h-24.69ZM678.26,986.64v-31.08c0-4.22,1.26-7.59,3.8-10.1,2.53-2.51,6.13-3.77,10.79-3.77,1.43,0,2.88.13,4.33.39,1.45.26,2.68.67,3.68,1.23l-3.23,9.38c-.44-.2-.92-.38-1.43-.54-.52-.16-1.06-.24-1.61-.24-.96,0-1.73.3-2.33.9s-.9,1.55-.9,2.87v1.55l.42,5.56v23.85h-13.51Z"/>
      <path class="st15" d="M737.13,987.24c-3.71,0-6.98-.73-9.83-2.18-2.85-1.45-5.09-3.46-6.72-6.01-1.63-2.55-2.45-5.48-2.45-8.79s.82-6.24,2.45-8.79c1.63-2.55,3.88-4.54,6.72-5.98,2.85-1.43,6.13-2.15,9.83-2.15s6.99.72,9.86,2.15,5.11,3.43,6.72,5.98c1.61,2.55,2.42,5.48,2.42,8.79s-.81,6.24-2.42,8.79c-1.61,2.55-3.85,4.55-6.72,6.01-2.87,1.46-6.16,2.18-9.86,2.18ZM737.13,976.72c1,0,1.89-.24,2.69-.72.8-.48,1.43-1.2,1.91-2.18.48-.98.72-2.16.72-3.56s-.24-2.62-.72-3.56c-.48-.94-1.12-1.64-1.91-2.12-.8-.48-1.69-.72-2.69-.72s-1.89.24-2.69.72c-.8.48-1.43,1.19-1.91,2.12-.48.94-.72,2.12-.72,3.56s.24,2.58.72,3.56c.48.98,1.12,1.7,1.91,2.18.8.48,1.69.72,2.69.72Z"/>
      <path class="st12" d="M778.31,986.64v-32.69h12.85v9.86l-2.09-2.81c1-2.55,2.59-4.46,4.78-5.74,2.19-1.27,4.82-1.91,7.89-1.91v11.95c-.6-.08-1.13-.14-1.58-.18-.46-.04-.93-.06-1.4-.06-2.03,0-3.7.53-4.99,1.58-1.3,1.06-1.94,2.88-1.94,5.47v14.52h-13.51Z"/>
      <path class="st14" d="M872.15,987.24c-2.79,0-5.54-.3-8.25-.9-2.71-.6-4.9-1.37-6.57-2.33l3.71-8.91c1.55.92,3.36,1.63,5.41,2.15,2.05.52,4.05.78,6.01.78,1.63,0,2.74-.14,3.32-.42.58-.28.87-.66.87-1.14s-.34-.83-1.02-1.05c-.68-.22-1.57-.39-2.69-.51-1.12-.12-2.34-.27-3.68-.45-1.34-.18-2.68-.45-4.03-.81-1.36-.36-2.59-.9-3.71-1.61-1.12-.72-2.01-1.68-2.69-2.9-.68-1.21-1.02-2.76-1.02-4.63,0-2.07.63-3.94,1.88-5.62,1.25-1.67,3.13-3.02,5.62-4.03,2.49-1.02,5.57-1.52,9.23-1.52,2.39,0,4.78.22,7.17.66,2.39.44,4.44,1.12,6.16,2.03l-3.71,8.91c-1.67-.92-3.32-1.54-4.93-1.88-1.61-.34-3.12-.51-4.51-.51-1.71,0-2.88.16-3.5.48-.62.32-.93.68-.93,1.08,0,.48.34.84,1.02,1.08.68.24,1.57.42,2.69.54,1.11.12,2.34.27,3.68.45,1.33.18,2.67.46,4,.84,1.33.38,2.56.93,3.68,1.64,1.12.72,2.01,1.68,2.69,2.9.68,1.22,1.02,2.76,1.02,4.63s-.62,3.78-1.85,5.47c-1.24,1.69-3.11,3.05-5.62,4.06-2.51,1.02-5.66,1.52-9.44,1.52Z"/>
      <path class="st21" d="M954.34,953.35c2.47,0,4.69.51,6.66,1.52s3.53,2.6,4.66,4.75,1.7,4.94,1.7,8.37v18.65h-13.51v-16.32c0-2.03-.34-3.48-1.02-4.33-.68-.86-1.55-1.29-2.63-1.29-.8,0-1.51.2-2.15.6-.64.4-1.15,1.03-1.52,1.88-.38.86-.57,2.02-.57,3.5v15.96h-13.51v-16.32c0-2.03-.32-3.48-.96-4.33-.64-.86-1.53-1.29-2.69-1.29-.8,0-1.51.2-2.15.6-.64.4-1.15,1.03-1.52,1.88-.38.86-.57,2.02-.57,3.5v15.96h-13.51v-32.69h12.85v9.38l-2.63-2.63c1.23-2.47,2.89-4.31,4.96-5.53,2.07-1.22,4.38-1.82,6.93-1.82,2.87,0,5.41.75,7.62,2.24,2.21,1.49,3.7,3.85,4.45,7.08l-4.12-.66c1.2-2.71,2.94-4.83,5.23-6.37,2.29-1.53,4.95-2.3,7.98-2.3Z"/>
      <path class="st11" d="M1001.67,987.24c-2.67,0-4.9-.46-6.69-1.37-1.79-.92-3.15-2.14-4.06-3.68-.92-1.53-1.38-3.24-1.38-5.11,0-2.11.54-3.9,1.61-5.38,1.08-1.47,2.72-2.59,4.93-3.35,2.21-.76,5.01-1.14,8.4-1.14h6.81v6.52h-4.66c-1.43,0-2.48.23-3.14.69-.66.46-.99,1.15-.99,2.06,0,.76.29,1.39.87,1.88.58.5,1.36.75,2.36.75.92,0,1.76-.25,2.54-.75.78-.5,1.34-1.28,1.7-2.36l1.73,4c-.52,2.43-1.61,4.24-3.29,5.44-1.67,1.2-3.93,1.79-6.75,1.79ZM1010.94,986.64v-5.8l-.96-1.55v-11c0-1.59-.49-2.81-1.46-3.65-.98-.84-2.56-1.26-4.75-1.26-1.47,0-2.97.23-4.48.69-1.51.46-2.81,1.09-3.89,1.88l-4.3-8.91c1.91-1.2,4.2-2.11,6.87-2.75,2.67-.64,5.28-.96,7.83-.96,5.62,0,9.97,1.26,13.06,3.77,3.09,2.51,4.63,6.5,4.63,11.95v17.57h-12.55Z"/>
      <path class="st7" d="M1047.28,986.64v-32.69h12.85v9.86l-2.09-2.81c1-2.55,2.59-4.46,4.78-5.74,2.19-1.27,4.82-1.91,7.89-1.91v11.95c-.6-.08-1.13-.14-1.58-.18-.46-.04-.93-.06-1.4-.06-2.03,0-3.7.53-4.99,1.58-1.3,1.06-1.94,2.88-1.94,5.47v14.52h-13.51Z"/>
      <path class="st5" d="M1090.37,965.6v-9.86h24.69v9.86h-24.69ZM1109.14,987.24c-4.5,0-8.01-1.08-10.52-3.26-2.51-2.17-3.77-5.51-3.77-10.01v-27.37h13.51v27.26c0,1,.27,1.77.81,2.33.54.56,1.2.84,2,.84,1.16,0,2.17-.3,3.05-.9l3.23,9.38c-1.04.6-2.28,1.04-3.74,1.31-1.46.28-2.98.42-4.57.42Z"/>
      <path class="st2" d="M1187.44,987.24c-2.79,0-5.54-.3-8.25-.9-2.71-.6-4.9-1.37-6.57-2.33l3.71-8.91c1.55.92,3.36,1.63,5.41,2.15,2.05.52,4.05.78,6.01.78,1.63,0,2.74-.14,3.32-.42.58-.28.87-.66.87-1.14s-.34-.83-1.02-1.05c-.68-.22-1.57-.39-2.69-.51-1.12-.12-2.34-.27-3.68-.45-1.34-.18-2.68-.45-4.03-.81-1.36-.36-2.59-.9-3.71-1.61-1.12-.72-2.01-1.68-2.69-2.9-.68-1.21-1.02-2.76-1.02-4.63,0-2.07.63-3.94,1.88-5.62,1.25-1.67,3.13-3.02,5.62-4.03,2.49-1.02,5.57-1.52,9.23-1.52,2.39,0,4.78.22,7.17.66,2.39.44,4.44,1.12,6.16,2.03l-3.71,8.91c-1.67-.92-3.32-1.54-4.93-1.88-1.61-.34-3.12-.51-4.51-.51-1.71,0-2.88.16-3.5.48-.62.32-.93.68-.93,1.08,0,.48.34.84,1.02,1.08.68.24,1.57.42,2.69.54,1.11.12,2.34.27,3.68.45,1.33.18,2.67.46,4,.84,1.33.38,2.56.93,3.68,1.64,1.12.72,2.01,1.68,2.69,2.9.68,1.22,1.02,2.76,1.02,4.63s-.62,3.78-1.85,5.47c-1.24,1.69-3.11,3.05-5.62,4.06-2.51,1.02-5.66,1.52-9.44,1.52Z"/>
      <path class="st8" d="M1243.62,987.24c-3.71,0-6.98-.73-9.83-2.18-2.85-1.45-5.09-3.46-6.72-6.01-1.63-2.55-2.45-5.48-2.45-8.79s.82-6.24,2.45-8.79c1.63-2.55,3.88-4.54,6.72-5.98,2.85-1.43,6.13-2.15,9.83-2.15s6.99.72,9.86,2.15,5.11,3.43,6.72,5.98c1.61,2.55,2.42,5.48,2.42,8.79s-.81,6.24-2.42,8.79c-1.61,2.55-3.85,4.55-6.72,6.01-2.87,1.46-6.16,2.18-9.86,2.18ZM1243.62,976.72c1,0,1.89-.24,2.69-.72.8-.48,1.43-1.2,1.91-2.18.48-.98.72-2.16.72-3.56s-.24-2.62-.72-3.56c-.48-.94-1.12-1.64-1.91-2.12-.8-.48-1.69-.72-2.69-.72s-1.89.24-2.69.72c-.8.48-1.43,1.19-1.91,2.12-.48.94-.72,2.12-.72,3.56s.24,2.58.72,3.56c.48.98,1.12,1.7,1.91,2.18.8.48,1.69.72,2.69.72Z"/>
      <path class="st10" d="M1284.8,986.64v-44.35h13.51v44.35h-13.51Z"/>
      <path class="st22" d="M1335.85,987.24c-2.59,0-4.93-.53-7.02-1.58-2.09-1.06-3.74-2.71-4.93-4.96-1.2-2.25-1.79-5.15-1.79-8.7v-18.05h13.51v15.72c0,2.31.38,3.93,1.14,4.84.76.92,1.79,1.37,3.11,1.37.8,0,1.54-.21,2.24-.63.7-.42,1.26-1.12,1.7-2.09.44-.98.66-2.26.66-3.86v-15.36h13.51v32.69h-12.85v-9.44l2.57,2.57c-1.16,2.55-2.8,4.43-4.93,5.65-2.13,1.22-4.43,1.82-6.9,1.82Z"/>
      <path class="st13" d="M1378.88,965.6v-9.86h24.69v9.86h-24.69ZM1397.65,987.24c-4.5,0-8.01-1.08-10.52-3.26-2.51-2.17-3.77-5.51-3.77-10.01v-27.37h13.51v27.26c0,1,.27,1.77.81,2.33.54.56,1.2.84,2,.84,1.16,0,2.17-.3,3.05-.9l3.23,9.38c-1.04.6-2.28,1.04-3.74,1.31-1.46.28-2.98.42-4.57.42Z"/>
      <path class="st19" d="M1434.05,951.32c-2.47,0-4.44-.66-5.92-1.97-1.47-1.31-2.21-2.95-2.21-4.9s.74-3.59,2.21-4.9c1.47-1.31,3.45-1.97,5.92-1.97s4.44.62,5.92,1.85c1.47,1.24,2.21,2.83,2.21,4.78,0,2.07-.74,3.78-2.21,5.11-1.47,1.34-3.45,2-5.92,2ZM1427.3,986.64v-32.69h13.51v32.69h-13.51Z"/>
      <path class="st9" d="M1481.98,987.24c-3.71,0-6.98-.73-9.83-2.18-2.85-1.45-5.09-3.46-6.72-6.01-1.63-2.55-2.45-5.48-2.45-8.79s.82-6.24,2.45-8.79c1.63-2.55,3.88-4.54,6.72-5.98,2.85-1.43,6.13-2.15,9.83-2.15s6.99.72,9.86,2.15,5.11,3.43,6.72,5.98c1.61,2.55,2.42,5.48,2.42,8.79s-.81,6.24-2.42,8.79c-1.61,2.55-3.85,4.55-6.72,6.01-2.87,1.46-6.16,2.18-9.86,2.18ZM1481.98,976.72c1,0,1.89-.24,2.69-.72.8-.48,1.43-1.2,1.91-2.18.48-.98.72-2.16.72-3.56s-.24-2.62-.72-3.56c-.48-.94-1.12-1.64-1.91-2.12-.8-.48-1.69-.72-2.69-.72s-1.89.24-2.69.72c-.8.48-1.43,1.19-1.91,2.12-.48.94-.72,2.12-.72,3.56s.24,2.58.72,3.56c.48.98,1.12,1.7,1.91,2.18.8.48,1.69.72,2.69.72Z"/>
      <path class="st20" d="M1545.88,953.35c2.51,0,4.78.51,6.81,1.52s3.64,2.6,4.81,4.75c1.17,2.15,1.76,4.94,1.76,8.37v18.65h-13.51v-16.32c0-2.03-.36-3.48-1.08-4.33-.72-.86-1.69-1.29-2.93-1.29-.92,0-1.76.21-2.54.63-.78.42-1.4,1.11-1.85,2.06-.46.96-.69,2.25-.69,3.89v15.36h-13.51v-32.69h12.85v9.56l-2.57-2.75c1.27-2.47,3-4.32,5.17-5.56,2.17-1.23,4.59-1.85,7.26-1.85Z"/>
      <path class="st6" d="M1595.85,987.24c-2.79,0-5.54-.3-8.25-.9-2.71-.6-4.9-1.37-6.57-2.33l3.71-8.91c1.55.92,3.36,1.63,5.41,2.15,2.05.52,4.05.78,6.01.78,1.63,0,2.74-.14,3.32-.42.58-.28.87-.66.87-1.14s-.34-.83-1.02-1.05c-.68-.22-1.57-.39-2.69-.51-1.12-.12-2.34-.27-3.68-.45-1.34-.18-2.68-.45-4.03-.81-1.36-.36-2.59-.9-3.71-1.61-1.12-.72-2.01-1.68-2.69-2.9-.68-1.21-1.02-2.76-1.02-4.63,0-2.07.63-3.94,1.88-5.62,1.25-1.67,3.13-3.02,5.62-4.03,2.49-1.02,5.57-1.52,9.23-1.52,2.39,0,4.78.22,7.17.66,2.39.44,4.44,1.12,6.16,2.03l-3.71,8.91c-1.67-.92-3.32-1.54-4.93-1.88-1.61-.34-3.12-.51-4.51-.51-1.71,0-2.88.16-3.5.48-.62.32-.93.68-.93,1.08,0,.48.34.84,1.02,1.08.68.24,1.57.42,2.69.54,1.11.12,2.34.27,3.68.45,1.33.18,2.67.46,4,.84,1.33.38,2.56.93,3.68,1.64,1.12.72,2.01,1.68,2.69,2.9.68,1.22,1.02,2.76,1.02,4.63s-.62,3.78-1.85,5.47c-1.24,1.69-3.11,3.05-5.62,4.06-2.51,1.02-5.66,1.52-9.44,1.52Z"/>
    </g>
    <g>
      <path class="st1" d="M1084.39,564.68h0c7.05,24.61,26.28,43.84,50.89,50.89h0c-24.61,7.05-43.84,26.28-50.89,50.89h0c-7.05-24.61-26.28-43.84-50.89-50.89h0c24.61-7.05,43.84-26.28,50.89-50.89h0Z"/>
      <path class="st1" d="M1295.01,396.01h0c3.33,11.62,12.41,20.7,24.03,24.03h0c-11.62,3.33-20.7,12.41-24.03,24.03h0c-3.33-11.62-12.41-20.7-24.03-24.03h0c11.62-3.33,20.7-12.41,24.03-24.03h0Z"/>
    </g>
  </g>
</svg>